<svg id="로고" xmlns="http://www.w3.org/2000/svg" width="159.653" height="20" viewBox="0 0 159.653 20">
  <defs>
    <style>
      .cls-1 {
        fill: #5a5b5e;
      }

      .cls-2 {
        fill: #af0030;
      }
    </style>
  </defs>
  <path id="패스_630" data-name="패스 630" class="cls-1" d="M312.336,20h-2.6a.385.385,0,0,1-.358-.527l6.371-16.891a4.386,4.386,0,0,1,8,.022l6.379,16.874a.385.385,0,0,1-.359.522h-2.58a.7.7,0,0,1-.719-.5l-5.741-15.27a1.043,1.043,0,0,0-1.945.005l-5.8,15.275a.7.7,0,0,1-.651.488" transform="translate(-190.302 0)"/>
  <path id="패스_631" data-name="패스 631" class="cls-1" d="M237.722,2.206V4.09a.385.385,0,0,1-.385.386h-9.632c-1.766,0-2.547.958-2.547,2.322,0,1.19.608,2.322,2.894,2.322h4.574c5.327,0,6.571,2.961,6.571,5.777,0,3.31-1.766,5.748-6.224,5.748h-8.782a1.155,1.155,0,0,1-1.153-1.156V17.605a.385.385,0,0,1,.384-.385h9.667c1.853,0,2.692-1.016,2.692-2.439,0-1.277-.666-2.439-3.068-2.439h-4.545c-5.211,0-6.426-2.932-6.426-5.661,0-3.251,1.736-5.632,6.079-5.632h8.747a1.155,1.155,0,0,1,1.153,1.156" transform="translate(-136.409 -0.646)"/>
  <path id="패스_632" data-name="패스 632" class="cls-1" d="M285.9,2.206V4.09a.385.385,0,0,1-.385.386h-5.457a.4.4,0,0,0-.4.4V20.26a.385.385,0,0,1-.385.385H276.6a.385.385,0,0,1-.384-.385V4.861a.385.385,0,0,0-.384-.385h-5.476a.385.385,0,0,1-.385-.386V2.206a1.155,1.155,0,0,1,1.153-1.156h13.628A1.155,1.155,0,0,1,285.9,2.206" transform="translate(-166.076 -0.646)"/>
  <path id="패스_633" data-name="패스 633" class="cls-1" d="M380.624,1.05c4.4,0,6.659,2.729,6.659,5.864a5.869,5.869,0,0,1-3.085,5.516l2.885,7.636a.385.385,0,0,1-.332.579h-2.83a.384.384,0,0,1-.331-.189L380.8,13.069h-6.837a.432.432,0,0,0-.492.494v6.7a.385.385,0,0,1-.384.385h-2.647a.385.385,0,0,1-.385-.385V12.894c0-2.206.926-3.106,3.068-3.106h7.613a2.667,2.667,0,0,0,2.881-2.729,2.6,2.6,0,0,0-2.881-2.584H370.414a.385.385,0,0,1-.385-.386V2.206a1.155,1.155,0,0,1,1.153-1.156Z" transform="translate(-227.631 -0.646)"/>
  <path id="패스_634" data-name="패스 634" class="cls-2" d="M62.95,1.05c5.674,0,8.829,3.252,8.829,9.841,0,6.561-3.126,9.755-8.829,9.755H60.286c-5.7,0-8.829-3.193-8.829-9.755,0-6.589,3.156-9.841,8.829-9.841ZM60.286,4.476c-3.763,0-5.413,1.916-5.413,6.416,0,4.471,1.621,6.329,5.413,6.329H62.95c3.763,0,5.384-1.858,5.384-6.358,0-4.471-1.621-6.387-5.384-6.387Z" transform="translate(-31.655 -0.646)"/>
  <path id="패스_635" data-name="패스 635" class="cls-2" d="M171.829,1.05c5.674,0,8.829,3.252,8.829,9.841,0,6.561-3.126,9.755-8.829,9.755h-2.663c-5.7,0-8.829-3.193-8.829-9.755,0-6.589,3.155-9.841,8.829-9.841Zm-2.663,3.426c-3.763,0-5.413,1.916-5.413,6.416,0,4.471,1.621,6.329,5.413,6.329h2.663c3.763,0,5.384-1.858,5.384-6.358,0-4.471-1.621-6.387-5.384-6.387Z" transform="translate(-98.634 -0.646)"/>
  <path id="패스_636" data-name="패스 636" class="cls-2" d="M125.027,10.662a5.239,5.239,0,0,0,2.432-4.4,5.379,5.379,0,0,0-5.678-5.193l-.057,0c-.146-.007-.287-.018-.441-.02h-8.6a1.411,1.411,0,0,0-1.621,1.6v16.4a1.411,1.411,0,0,0,1.621,1.6h8.684c.16,0,.314,0,.465-.009.031,0,.06,0,.091,0,3.45,0,5.962-2.459,5.962-5.283a5.321,5.321,0,0,0-2.86-4.7m-10.605-5.9a.329.329,0,0,1,.376-.348h6.638a2.46,2.46,0,0,1,.042,4.9l-.109,0h-6.947Zm0,12.164V12.169h4.386l-.006.007h2.928v.007a2.532,2.532,0,0,1,0,5.053v0c-.09,0-.18.008-.275.008H114.8c-.231,0-.376-.087-.376-.319" transform="translate(-68.323 -0.646)"/>
  <path id="패스_637" data-name="패스 637" class="cls-2" d="M10.566,1.05c4.4,0,6.659,2.729,6.659,5.864a5.87,5.87,0,0,1-3.085,5.516l2.885,7.636a.385.385,0,0,1-.332.579h-2.83a.384.384,0,0,1-.331-.189l-2.787-7.388H3.908a.432.432,0,0,0-.492.494v6.7a.385.385,0,0,1-.384.385H.384A.385.385,0,0,1,0,20.26V12.894c0-2.206.926-3.106,3.068-3.106h7.614A2.667,2.667,0,0,0,13.563,7.06a2.6,2.6,0,0,0-2.881-2.584H.412A.385.385,0,0,1,.028,4.09V2.206A1.155,1.155,0,0,1,1.181,1.05Z" transform="translate(0 -0.646)"/>
</svg>
