<?xml version="1.0" encoding="utf-8"?>
<!-- Generator: Adobe Illustrator 25.2.1, SVG Export Plug-In . SVG Version: 6.00 Build 0)  -->
<svg version="1.1" id="Layer_1" xmlns="http://www.w3.org/2000/svg" xmlns:xlink="http://www.w3.org/1999/xlink" x="0px" y="0px"
	 viewBox="0 0 626 76" style="enable-background:new 0 0 626 76;" xml:space="preserve">
<style type="text/css">
	.st0{fill:#6D6E71;}
	.st1{fill:none;}
	.st2{fill:url(#Path_254_1_);}
	.st3{fill:url(#Path_255_1_);}
	.st4{fill:url(#Path_256_1_);}
	.st5{fill:#626D77;}
	.st6{fill:#8699A3;}
	.st7{fill:#8D9AA1;}
	.st8{fill:url(#Path_260_1_);}
	.st9{fill:url(#Path_261_1_);}
	.st10{fill:#B4BDC3;}
	.st11{fill:url(#Path_264_1_);}
	.st12{fill:#505C61;}
	.st13{fill:#8F9CA4;}
	.st14{fill:url(#Path_268_1_);}
	.st15{fill:url(#Path_269_1_);}
	.st16{fill:url(#Path_273_1_);}
	.st17{fill:url(#Path_274_1_);}
	.st18{fill:url(#Path_275_1_);}
	.st19{fill:#FFFFFF;}
</style>
<g id="logo" transform="translate(0 .055)">
	<path id="패스_6822" class="st0" d="M250.1,26.5h-7.7V14.8h-7.5v44.1h6.5c0.6-3.5,1-7,0.9-10.6V32.9h7.7L250.1,26.5z M205,15.6
		v6.2h8.9v3c0,7.9-1.6,12.9-9.7,16.4l3,5.5c4.7-1.6,8.6-4.9,11-9.3c2.3,4.1,5.9,7.2,10.3,8.8l3.6-6.4c-7.8-3-10.5-7.6-10.5-15.1
		v-2.9h8.6v-6.2L205,15.6z M200.5,52.5h-23c-0.6,0-0.8-0.1-0.8-0.8v-9.2H169v12.4c0,2.7,1.4,4,4,4h27.5V52.5z M199.7,14.8h-7.8v9
		h-7.3v6.5h7.3v16.4h6.9c0.6-2.8,0.9-5.7,0.9-8.6L199.7,14.8z M161.1,15.7v6.2h8.5v1.6c0,6.4-2.6,9.8-9.5,12.1l2.6,6
		c4.7-0.9,8.8-3.7,11.3-7.8c2.4,3.9,6.3,6.6,10.7,7.6l3.3-6.8c-6-1.3-10.4-4.6-10.4-11v-1.6h8.4v-6.2L161.1,15.7z"/>
	<path id="패스_6823" class="st0" d="M97.2,58.3H115V50H94.9V15.7h-9.7v42.6H97.2z"/>
	<path id="패스_6824" class="st0" d="M136.2,42h7.9v7.4c-2.3,0.8-4.6,1.1-7,1.1c-8.7,0-11.6-4.5-11.6-13.6
		c0-8.7,2.8-13.8,11.5-13.8c3.8-0.3,7.6,1.4,9.9,4.5l6-5.6c-3.7-5.3-10.1-7-16.2-7c-13.6,0-20.7,7.5-20.7,21.8
		c0,14.3,6.4,22,20.7,22c5.7,0.2,11.4-1.3,16.4-4.2V34.1h-16.8V42z"/>
	<path id="사각형_1290" class="st1" d="M5.8,4.4h480.3v65.2H5.8V4.4z"/>
	<g id="Group_590" transform="translate(-30 -.055)">
		<g id="Group_433" transform="translate(30)">
			
				<radialGradient id="Path_254_1_" cx="-102.3937" cy="351.9745" r="0.521" gradientTransform="matrix(64.2702 0 0 65.1833 6617.603 -22819.0078)" gradientUnits="userSpaceOnUse">
				<stop  offset="0" style="stop-color:#BF0C3F"/>
				<stop  offset="0.5" style="stop-color:#BF0C3F"/>
				<stop  offset="0.753" style="stop-color:#BC0B3D"/>
				<stop  offset="0.859" style="stop-color:#B5093A"/>
				<stop  offset="0.938" style="stop-color:#A90534"/>
				<stop  offset="1" style="stop-color:#99002C"/>
			</radialGradient>
			<path id="Path_254" class="st2" d="M37.9,4.3C20.2,4.3,5.8,18.9,5.8,36.9c0,18,14.4,32.6,32.2,32.6c17.6,0,32-14.4,32.1-32.3
				v-0.5C70,18.7,55.6,4.3,37.9,4.3L37.9,4.3z"/>
			
				<linearGradient id="Path_255_1_" gradientUnits="userSpaceOnUse" x1="-107.6269" y1="329.9671" x2="-106.8241" y2="327.7643" gradientTransform="matrix(21.692 0 0 -21.7088 2359.5425 7171.7856)">
				<stop  offset="0" style="stop-color:#F38895"/>
				<stop  offset="8.600000e-02" style="stop-color:#EB7487"/>
				<stop  offset="0.314" style="stop-color:#D84768"/>
				<stop  offset="0.517" style="stop-color:#CA2751"/>
				<stop  offset="0.687" style="stop-color:#C21343"/>
				<stop  offset="0.801" style="stop-color:#BF0C3F"/>
				<stop  offset="1" style="stop-color:#BF0C3F"/>
			</linearGradient>
			<path id="Path_255" class="st3" d="M16.3,15c-10.9,11-12,27.8-2.4,37.5S40,61,50.9,50s12-27.8,2.4-37.5C49,8.1,43.1,5.8,37,5.9
				C29.2,6,21.8,9.3,16.3,15"/>
			
				<linearGradient id="Path_256_1_" gradientUnits="userSpaceOnUse" x1="-108.3331" y1="330.1269" x2="-106.6056" y2="328.4091" gradientTransform="matrix(22.6281 0 0 -22.8701 2467.8279 7570.3408)">
				<stop  offset="0" style="stop-color:#CD425C"/>
				<stop  offset="8.900001e-02" style="stop-color:#BD3251"/>
				<stop  offset="0.249" style="stop-color:#A91E43"/>
				<stop  offset="0.43" style="stop-color:#9B1038"/>
				<stop  offset="0.648" style="stop-color:#920732"/>
				<stop  offset="1" style="stop-color:#900531"/>
			</linearGradient>
			<path id="Path_256" class="st4" d="M36.3,51.5l0.8-0.4V23.5l-0.2-0.3l0.2-0.1v0h0.1l2.4-0.8l0.4,0.7c0,0.1,0.1,0.1,0.1,0.2l0,25
				h5.8l0.5,0.7c0.1,0.1,0.1,0.2,0.1,0.3v2.5c0,0.1-0.1,0.2-0.2,0.2c0,0,0,0,0,0h-8.9c-0.2,0-0.3,0-0.4-0.1L36.3,51.5z M65.2,35.4
				H45.4v3.2l0.5,0.7c0,0,0.1,0.1,0.2,0.1h16.6c-0.8,13.6-12.4,23.9-25.7,23c-13.4-0.9-23.5-12.5-22.7-26.1
				c0.8-13,11.5-23.1,24.3-23.1l1.3,0H40c0.1,0,0.2,0,0.2-0.2v-2.6c0-0.1,0-0.2-0.1-0.3l-0.6-0.7l-1.3,0.2l-0.7,0.2
				c-15.1,0-26.4,12.8-26.4,28c0,15.3,12.3,27.7,27.4,27.6c15.1,0,27.3-12.5,27.3-27.8V36L65.2,35.4z M28.1,22.7
				c-2.4,0-4.3,2-4.3,4.4c0,2.4,1.9,4.3,4.3,4.3c2.4,0,4.2-2,4.3-4.3C32.4,24.6,30.5,22.7,28.1,22.7C28.1,22.7,28.1,22.7,28.1,22.7z
				"/>
			<path id="Path_257" class="st5" d="M36.9,50.9l-0.7,0.6H46l-0.6-0.7L36.9,50.9z"/>
			<path id="Path_258" class="st6" d="M45.3,48.9l0.6-0.6h-6.4l-0.8,0.6H45.3z"/>
			<path id="Path_259" class="st7" d="M39.6,22.3h-3.4l0.6,0.6h2L39.6,22.3z"/>
			
				<linearGradient id="Path_260_1_" gradientUnits="userSpaceOnUse" x1="350.0078" y1="316.3743" x2="352.424" y2="316.3743" gradientTransform="matrix(0.3 0 0 -10.988 -66.1094 3511.8896)">
				<stop  offset="0" style="stop-color:#B4BDC3"/>
				<stop  offset="4.000000e-02" style="stop-color:#ADB6BC"/>
				<stop  offset="0.498" style="stop-color:#6B7379"/>
				<stop  offset="0.83" style="stop-color:#424950"/>
				<stop  offset="1" style="stop-color:#333940"/>
			</linearGradient>
			<path id="Path_260" class="st8" d="M38.9,49l0.7-0.6V22.1l-0.7,0.6L38.9,49z"/>
			
				<linearGradient id="Path_261_1_" gradientUnits="userSpaceOnUse" x1="429.5229" y1="127.2315" x2="431.9392" y2="127.2315" gradientTransform="matrix(0.263 0 0 -1.328 -67.6779 218.8374)">
				<stop  offset="0" style="stop-color:#B3BBC1"/>
				<stop  offset="8.100000e-02" style="stop-color:#A6AEB3"/>
				<stop  offset="0.52" style="stop-color:#636B70"/>
				<stop  offset="0.838" style="stop-color:#394146"/>
				<stop  offset="1" style="stop-color:#2A3236"/>
			</linearGradient>
			<path id="Path_261" class="st9" d="M45.3,48.9v2l0.6,0.7v-3.3L45.3,48.9z"/>
			<path id="Path_262" class="st10" d="M36.3,22.1v29.6l0.7-0.6l0-28.4L36.3,22.1z"/>
			<path id="Path_263" d="M24.1,26.5c0,2,1.6,3.7,3.6,3.7s3.6-1.6,3.6-3.7c0-2-1.6-3.7-3.6-3.7c-1,0-1.9,0.4-2.6,1.1
				C24.5,24.6,24.1,25.5,24.1,26.5z"/>
			
				<linearGradient id="Path_264_1_" gradientUnits="userSpaceOnUse" x1="-48.2673" y1="264.3742" x2="-48.0571" y2="264.3742" gradientTransform="matrix(3.51 0 0 -3.51 293.4431 954.4641)">
				<stop  offset="0" style="stop-color:#ABBAC2"/>
				<stop  offset="1" style="stop-color:#262A30"/>
			</linearGradient>
			<path id="Path_264" class="st11" d="M23.4,26.5c0,2.4,1.9,4.3,4.2,4.3c2.3,0,4.2-1.9,4.2-4.3c0-2.4-1.9-4.3-4.2-4.3
				c-1.1,0-2.2,0.5-3,1.3C23.9,24.3,23.4,25.4,23.4,26.5z M31.3,26.5c0,2-1.6,3.7-3.6,3.7c-2,0-3.6-1.6-3.6-3.7c0-2,1.6-3.7,3.6-3.7
				c0,0,0,0,0,0C29.7,22.8,31.3,24.5,31.3,26.5z"/>
			<path id="Path_265" class="st12" d="M62.5,37.9l-16.9,0L45,38.5h16.8l0.3-0.4L62.5,37.9z"/>
			<path id="Path_267" class="st13" d="M45.6,36l18.9,0l0.6-0.7H45L45.6,36z"/>
			
				<linearGradient id="Path_268_1_" gradientUnits="userSpaceOnUse" x1="-103.2119" y1="329.1996" x2="-103.1804" y2="329.1996" gradientTransform="matrix(22.508 0 0 -22.508 2453.9446 7446.502)">
				<stop  offset="0" style="stop-color:#B4BDC3"/>
				<stop  offset="1" style="stop-color:#3E454D"/>
			</linearGradient>
			<path id="Path_268" class="st14" d="M65.1,36.9v-1.6l-0.6,0.6v0.9c0,14.9-11.9,26.9-26.6,26.9c-14.7,0-26.5-12.1-26.5-26.9
				C11.4,22,23.3,10,37.9,9.9l1,0l0.6-0.6l-1.6,0c-15,0-27.2,12.3-27.2,27.6c0,15.2,12.2,27.6,27.2,27.6
				C52.9,64.5,65.1,52.1,65.1,36.9C65.1,36.9,65.1,36.9,65.1,36.9L65.1,36.9z"/>
			
				<linearGradient id="Path_269_1_" gradientUnits="userSpaceOnUse" x1="-102.0303" y1="327.8948" x2="-101.994" y2="327.8948" gradientTransform="matrix(20.4745 0 0 -20.35 2223.0706 6709.5537)">
				<stop  offset="0" style="stop-color:#B4BDC3"/>
				<stop  offset="1" style="stop-color:#485159"/>
			</linearGradient>
			<path id="Path_269" class="st15" d="M38.9,12l-0.7,0h-0.7C24,12,13,23.1,13,36.9c0,13.8,11,24.9,24.6,24.9h0.6
				C51,61.6,61.5,51.5,62.4,38.6l0-0.7l-0.3,0.3l-0.3,0.3C60.9,51.9,49.5,62,36.3,61.1C23.1,60.2,13.1,48.7,14,35.3
				c0.8-12.8,11.3-22.7,23.9-22.7l1.6,0L38.9,12z"/>
			<path id="Path_272" class="st10" d="M45.9,36l-0.6-0.7v3.3l0.6-0.7V36z"/>
			
				<linearGradient id="Path_273_1_" gradientUnits="userSpaceOnUse" x1="419.43" y1="146.9128" x2="421.8462" y2="146.9128" gradientTransform="matrix(0.261 0 0 -1.344 -70.5406 208.4224)">
				<stop  offset="0" style="stop-color:#B3BBC1"/>
				<stop  offset="8.100000e-02" style="stop-color:#A6AEB3"/>
				<stop  offset="0.52" style="stop-color:#636B70"/>
				<stop  offset="0.838" style="stop-color:#394146"/>
				<stop  offset="1" style="stop-color:#2A3236"/>
			</linearGradient>
			<path id="Path_273" class="st16" d="M38.9,12l0.6,0.6V9.3l-0.6,0.6V12z"/>
			
				<radialGradient id="Path_274_1_" cx="27.0462" cy="40.8499" r="42.5264" gradientTransform="matrix(1 0 0 0.8233 0 14.8)" gradientUnits="userSpaceOnUse">
				<stop  offset="0" style="stop-color:#FFFFFF"/>
				<stop  offset="0.35" style="stop-color:#FFFFFF"/>
				<stop  offset="0.511" style="stop-color:#FAFBFC"/>
				<stop  offset="0.677" style="stop-color:#EEF1F3"/>
				<stop  offset="0.845" style="stop-color:#D9E0E4"/>
				<stop  offset="1" style="stop-color:#C0CCD2"/>
			</radialGradient>
			<path id="Path_274" class="st17" d="M36.6,22.6v28.5h8.9v-2.5h-6.4v-26L36.6,22.6z M37.6,9.7C22.7,9.8,10.9,22.2,11,37.2
				c0.2,15,12.3,27.1,27.2,26.9c14.7-0.2,26.5-12.3,26.5-27.2v-1.2H45.6v2.5h16.6v0.4c-0.9,13.6-12.5,23.9-25.9,23
				c-13.4-0.9-23.6-12.7-22.7-26.3c0.9-13,11.5-23,24.3-23h1.3V9.7c-0.2,0-0.7,0-1,0L37.6,9.7z"/>
			
				<radialGradient id="Path_275_1_" cx="-22.1453" cy="255.5945" r="0.78" gradientTransform="matrix(7.8092 0 0 -7.9195 198.783 2049.2224)" gradientUnits="userSpaceOnUse">
				<stop  offset="0" style="stop-color:#FFFFFF"/>
				<stop  offset="0.35" style="stop-color:#FFFFFF"/>
				<stop  offset="0.537" style="stop-color:#FAFBFC"/>
				<stop  offset="0.73" style="stop-color:#EEF1F3"/>
				<stop  offset="0.926" style="stop-color:#D9E1E5"/>
				<stop  offset="1" style="stop-color:#D0DADF"/>
			</radialGradient>
			<path id="Path_275" class="st18" d="M23.8,26.5c0,2.2,1.7,4,3.9,4c2.2,0,3.9-1.8,3.9-4s-1.7-4-3.9-4c-1,0-2,0.4-2.8,1.2
				C24.2,24.4,23.8,25.5,23.8,26.5"/>
			<g id="Group_432" transform="translate(2.187 2.186)">
				<path id="Path_276" class="st19" d="M26.2,21.1c0.9,0,1.7,0.3,2.4,0.8c-1.3-1.7-3.7-2.1-5.4-0.7c-1.7,1.3-2,3.8-0.7,5.5
					c0.2,0.3,0.4,0.5,0.7,0.7c-0.5-0.7-0.8-1.5-0.8-2.4C22.3,22.9,24.1,21.1,26.2,21.1"/>
				<path id="Path_277" class="st19" d="M37.4,7.5c-0.3,0-1,0-1.3,0C21.2,7.4,9.1,19.5,8.9,34.6c0,7.2,2.9,14.2,8,19.2
					c0.2,0.2,0.3,0.3,0.5,0.5c-4.8-5-7.5-11.7-7.5-18.7C9.9,20.6,20.5,8.2,37.4,7.5"/>
				<path id="Path_278" class="st19" d="M37,46.4c2.1,0.5,4.3,0.6,6.5,0.6v-0.6H37z"/>
				<path id="Path_279" class="st19" d="M37,21v-0.8h-2.6v28.9c0,0,0.8-4.4,0.8-28.1L37,21z"/>
				<path id="Path_280" class="st19" d="M62.6,33.4H43.1V36h0.7v-1.8C60.8,34.1,62.6,33.4,62.6,33.4"/>
				<path id="Path_281" class="st19" d="M60,35.6c0,0.1,0,0.3,0,0.4c-0.8,13-11.4,23.2-24.2,23.3c-6.5,0-12.7-2.6-17.2-7.4
					c-3-3-5.1-6.8-6.2-10.9C15.7,54.3,29,62.2,42,58.9c10.5-2.7,18-12.2,18.3-23.2L60,35.6z"/>
			</g>
		</g>
	</g>
	<g id="그룹_2177">
		<path id="사각형_1312" d="M281.7,14.8h1.8v44.5h-1.8V14.8z"/>
		<path id="사각형_1313" class="st1" d="M5.8,4.4h480.3v65.2H5.8V4.4z"/>
	</g>
	<g id="그룹_2183" transform="translate(128 4.365)">
		<path id="패스_6825" class="st0" d="M211.7,31c4.2,2.1,7.2,4.1,7.2,10.2c0,8.3-5.5,12.6-14.2,12.6h-17.6V11.4h16.7
			c9,0,14.1,2.9,13.9,10.7C217.7,26.1,215.3,29.6,211.7,31 M195.2,18v10.7h8.2c2.7,0.4,5.3-1.6,5.7-4.3c0-0.3,0.1-0.6,0-0.9
			c0-4.4-2.6-5.2-5.8-5.4L195.2,18z M195.2,34.9V47h8.2c4.2,0.2,6.8-1.4,6.6-6c-0.1-4.7-2.7-6.2-6.6-6.1H195.2z"/>
		<path id="패스_6826" class="st0" d="M224.6,11.4h26.5v6.8H233v10.4h17.4v6.5H233V47h18.9v6.8h-27.2V11.4z"/>
		<path id="패스_6827" class="st0" d="M259.2,44.7c3.5,1.9,7.5,2.9,11.5,2.9c5.8,0,8.1-2.1,8.1-4.9c-0.2-1.9-1.4-3.6-3.2-4.3
			c-3.3-1.6-7.2-2.7-10.8-4.2c-5.2-2.6-8-5-8-11.3c0-7.5,5.6-12.1,15.9-12.1c4.8-0.1,9.5,1,13.8,3.2l-2.8,6.3
			c-3.3-1.8-7.1-2.8-10.9-2.7c-5.4,0-7.6,1.9-7.6,4.7c-0.1,1.2,0.4,2.4,1.3,3.2c0.8,0.7,1.7,1.2,2.7,1.6c2.8,1.2,6.9,2.6,10.3,4.2
			c4.1,2,7.5,4.4,7.5,11.1c0,7.5-6.1,12.2-16.2,12.2c-5.1,0-10.1-1.2-14.7-3.5L259.2,44.7z"/>
		<path id="패스_6828" class="st0" d="M290.6,11.4h33v6.8h-12.2v35.6H303V18.2h-12.4V11.4z"/>
		<path id="패스_6829" class="st0" d="M345.5,44.7c3.5,1.9,7.5,2.9,11.5,2.9c5.8,0,8.1-2.1,8.1-4.9c-0.2-1.9-1.4-3.6-3.2-4.3
			c-3.3-1.6-7.2-2.7-10.8-4.2c-5.2-2.6-8-5-8-11.3c0-7.5,5.6-12.1,15.9-12.1c4.8-0.1,9.5,1,13.8,3.2l-2.8,6.3
			c-3.3-1.8-7.1-2.8-10.9-2.8c-5.4,0-7.6,1.9-7.6,4.7c-0.1,1.2,0.4,2.4,1.3,3.2c0.8,0.7,1.7,1.2,2.7,1.6c2.8,1.2,6.9,2.6,10.3,4.2
			c4.1,2,7.5,4.4,7.5,11.1c0,7.5-6.1,12.2-16.2,12.2c-5.1,0-10.1-1.2-14.7-3.5L345.5,44.7z"/>
		<path id="패스_6830" class="st0" d="M379.9,11.4h8.3v17.7h17.2V11.4h8.3v42.4h-8.3V35.9h-17.2v17.9h-8.3V11.4z"/>
		<path id="패스_6831" class="st0" d="M456.6,32.7c0,14.4-6.4,21.6-19.8,21.6c-13.7,0-18.2-8.6-18.2-22c0-14.5,6.3-21.6,19.6-21.6
			C451.8,10.7,456.6,19.1,456.6,32.7 M427.1,33c0,8.1,2.2,14.7,9.5,14.7c8.7,0,11.2-5.7,11.2-15.9c0-8-2.1-14.7-9.5-14.7
			C430,17.1,427.1,22.9,427.1,33"/>
		<path id="패스_6832" class="st0" d="M478.3,11.4h-15.7v42.4h8.4V38.3h8.1c8.7-0.1,13.7-5.3,13.8-13.8
			C493,15.8,488.1,11.4,478.3,11.4 M477.7,31.8h-6.7V18h6.5c3.5-0.3,6.6,2.4,6.9,6c0,0.2,0,0.3,0,0.5
			C484.2,27.8,483.1,31.9,477.7,31.8"/>
	</g>
</g>
</svg>
